<?xml version="1.0" encoding="utf-8"?>
<!-- Generator: Adobe Illustrator 24.3.0, SVG Export Plug-In . SVG Version: 6.00 Build 0)  -->
<svg version="1.1" id="Livello_1" xmlns="http://www.w3.org/2000/svg" xmlns:xlink="http://www.w3.org/1999/xlink" x="0px" y="0px"
	 viewBox="0 0 90.9 50.4" style="enable-background:new 0 0 90.9 50.4;" xml:space="preserve">
<style type="text/css">
	.st0{enable-background:new    ;}
	.st1{fill:#CA376E;}
	.st2{fill:#FFFFFF;}
</style>
<g class="st0">
	<path class="st1" d="M43.3,7.3v24.1c0,3.2-1,5.9-3,8c-2.1,2.2-4.9,3.3-8.3,3.3c-3.1,0-5.7-1.1-7.9-3.3c-0.5-0.5-0.9-1.1-1.2-1.6
		c-0.3,0.5-0.8,1-1.3,1.5c-2.3,2.2-4.9,3.3-7.9,3.3c-3.4,0-6.1-1.1-8.3-3.3c-2-2-3-4.7-3-8V9.3l4.3-2h0.2v24.1c0,2,0.5,3.6,1.6,4.9
		c1.3,1.5,3.1,2.3,5.2,2.3c2.2,0,3.9-0.8,5.2-2.3c1.1-1.2,1.6-2.9,1.6-4.9V9.3l4.3-2H25v24.1c0,2,0.5,3.6,1.6,4.9
		c1.3,1.5,3.1,2.3,5.2,2.3c2.2,0,3.9-0.8,5.2-2.3c1.1-1.2,1.6-2.9,1.6-4.9V9.3l4.3-2H43.3z"/>
</g>
<g class="st0">
	<path class="st2" d="M47.7,43.1V19c0-3.2,1-5.9,3-8c2.1-2.2,4.9-3.3,8.3-3.3c3.1,0,5.7,1.1,7.9,3.3c0.5,0.5,0.9,1.1,1.2,1.6
		c0.3-0.5,0.8-1,1.3-1.5c2.3-2.2,4.9-3.3,7.9-3.3c3.4,0,6.1,1.1,8.3,3.3c2,2,3,4.7,3,8v22.1l-4.3,2h-0.2V19c0-2-0.5-3.6-1.6-4.9
		c-1.3-1.5-3.1-2.3-5.2-2.3c-2.2,0-3.9,0.8-5.2,2.3c-1.1,1.2-1.6,2.9-1.6,4.9v22.1l-4.3,2h-0.2V19c0-2-0.5-3.6-1.6-4.9
		c-1.3-1.5-3.1-2.3-5.2-2.3s-3.9,0.8-5.2,2.3c-1.1,1.2-1.6,2.9-1.6,4.9v22.1l-4.3,2H47.7z"/>
</g>
</svg>
